<svg xmlns="http://www.w3.org/2000/svg" xmlns:xlink="http://www.w3.org/1999/xlink" width="NaN" height="NaN" style=""><rect id="backgroundrect" width="100%" height="100%" x="0" y="0" fill="none" stroke="none"/><g class="currentLayer" style=""><title>Layer 1</title><g id="svgg" class="selected" fill="#ffffff" fill-opacity="1" stroke="#b6b6b6" stroke-opacity="1"><path id="path0" d="M182.406,16.833 C182.672,17.292 183.74,18.76 184.779,20.096 C186.307,22.063 186.667,23.196 186.667,26.05 L186.667,29.576 L184.524,26.788 C183.346,25.255 182.146,24 181.857,24 C180.718,24 181.456,25.406 184,28.08 C186.439,30.644 186.667,31.193 186.667,34.5 L186.667,38.115 L183.88,36.066 C182.348,34.939 180.955,34.156 180.785,34.326 C180.268,34.843 181.856,36.379 184.232,37.659 L186.483,38.871 L186.909,47.602 C187.337,56.356 187.406,65.086 187.359,103.839 L187.333,124.679 L184,126.73 C182.167,127.858 180.667,129.055 180.667,129.391 C180.667,130.442 181.825,130.061 183.878,128.333 C186.551,126.084 186.667,126.157 186.667,130.092 C186.667,133.175 186.394,133.814 183.94,136.476 C182.44,138.103 181.418,139.637 181.668,139.884 C181.919,140.131 183.142,139.133 184.386,137.667 L186.647,135 L186.657,138.224 C186.665,140.779 186.236,142.049 184.593,144.336 C183.452,145.925 182.647,147.608 182.804,148.077 C182.963,148.556 184.069,147.504 185.326,145.677 L187.564,142.424 L188.615,144.009 C190.534,146.902 191.88,148.338 192.291,147.93 C192.514,147.708 191.64,145.99 190.348,144.112 C188.544,141.489 188.005,140.039 188.02,137.849 L188.04,135 L190.667,138 C194.096,141.916 194.13,140.137 190.705,136.046 C188.189,133.041 188.097,132.765 188.552,129.62 L189.029,126.333 L190.64,128.5 C191.526,129.692 192.707,130.667 193.264,130.667 C193.898,130.667 193.247,129.606 191.525,127.833 L188.772,125 L188.764,85.804 C188.759,64.247 188.558,45.031 188.317,43.103 C187.884,39.638 187.911,39.569 190.606,37.134 C192.106,35.779 193.333,34.311 193.333,33.871 C193.333,33.431 192.344,34.031 191.135,35.203 C188.259,37.99 188,37.91 188,34.235 C188,31.72 188.417,30.623 190.214,28.402 C192.972,24.994 193.567,24 192.849,24 C192.539,24 191.321,25.255 190.143,26.788 L188,29.576 L188,26.253 C188,23.589 188.408,22.375 190.056,20.133 C191.187,18.596 191.988,16.965 191.837,16.511 C191.685,16.056 190.72,16.955 189.692,18.509 C187.4,21.973 187.27,21.977 185.079,18.667 C183.521,16.312 181.162,14.694 182.406,16.833 M51.364,18.728 C32.899,22.348 24.59,45.181 32.706,70 C39.515,90.825 62.95,118.913 91.917,140.97 C96.921,144.781 95.731,145.134 106.446,136.65 C151.493,100.982 172.741,59.649 159.567,33.315 C149.569,13.33 127.615,13.13 102.472,32.794 C98.992,35.516 96.284,37.185 95.806,36.903 C95.362,36.641 93.5,35.178 91.667,33.65 C77.648,21.968 62.827,16.481 51.364,18.728 M66.36,23.017 C74.329,25.057 88.659,33.411 94.311,39.31 L96.189,41.27 L100.928,37.398 C125.144,17.613 146.651,16.834 155.931,35.406 C168.188,59.934 150.099,96.037 107.924,131.222 C95.428,141.647 97.524,141.398 87.883,133.601 C65.597,115.576 47.766,94.975 39.735,77.971 C24.365,45.43 38.66,15.926 66.36,23.017 M129,24.314 C128.633,24.428 126.642,25.022 124.575,25.633 C118.208,27.514 118.074,27.742 120.275,32.922 C122.225,37.509 123.05,38.525 122.503,35.667 C122.125,33.689 122.661,33.575 124.674,35.205 C125.934,36.225 126.08,36.763 125.625,38.705 C125.329,39.967 125.154,41.479 125.235,42.065 C125.316,42.65 124.921,43.512 124.358,43.98 C123.762,44.475 123.333,45.9 123.333,47.392 C123.333,49.319 122.983,50.14 121.921,50.709 C120.58,51.427 120.295,56.517 121.527,57.749 C122.342,58.564 126.173,55.748 127.026,53.707 C127.936,51.53 129.442,50.694 132.493,50.676 C133.422,50.67 135.28,51.989 137.412,54.169 L140.84,57.672 L146.587,55.843 C149.747,54.838 153.64,53.692 155.238,53.296 L158.142,52.577 L157.702,48.788 C155.65,31.145 142.638,20.049 129,24.314 M57.528,27.429 C55.738,29.227 49.546,29.332 48.221,27.587 C47.199,26.24 45.677,27.054 42.366,30.718 C34.759,39.138 33.181,53.726 38.171,69.496 C39.545,73.839 40.632,74.41 40.656,70.799 C40.668,69.086 43.295,67.675 47.825,66.951 C50.295,66.556 50.594,66.7 52.975,69.432 L55.503,72.333 L55.073,68.444 C54.683,64.927 54.803,64.364 56.321,62.559 C57.245,61.462 58.191,59.371 58.425,57.913 C58.734,55.978 59.443,54.809 61.051,53.582 C62.373,52.574 63.337,51.195 63.46,50.133 C63.625,48.723 64.26,48.145 66.586,47.289 L69.505,46.215 L67.009,44.672 L64.513,43.129 L66.09,42.255 C67.96,41.218 70,41.073 70,41.977 C70,42.958 72.436,44.046 73.618,43.593 C74.959,43.078 74.981,42 73.65,42 C73.091,42 72.349,41.25 72,40.333 C71.651,39.417 70.954,38.667 70.45,38.667 C69.946,38.667 68.363,37.824 66.933,36.794 C61.983,33.228 59.333,33.524 59.333,37.643 C59.333,42 56.79,43.103 54.667,39.667 C53.829,38.312 52.688,37.333 51.946,37.333 C49.515,37.333 50.679,35.349 54.139,33.596000000000004 C56.366,32.468 58.616,31.857 60.412,31.893 C64.227,31.969 65.37,30.597 63.541,28.136 C61.809,25.805 59.424,25.525 57.528,27.429 M261.754,30.468 C261.16,31.062 261.228,34.671 261.833,34.645 C262.108,34.634 262.916,34.184 263.627,33.645 C267.182,30.957 268,32.069 268,39.585 C268,44.921 267.771,46.693 267,47.333 C265.257,48.78 265.903,49.333 269.333,49.333 C272.653,49.333 273.592,48.584 271.642,47.493 C270.802,47.023 270.652,45.665 270.809,39.96 L271,33 L272.772,32.795 C273.933,32.661 275.017,33.098 275.919,34.067 C277.55,35.818 278.462,34.597 277.722,31.65 C277.368,30.24 277.097,30.08 276.027,30.652 C274.413,31.516 264.973,31.544 263.377,30.69 C262.716,30.336 261.986,30.236 261.754,30.468 M279.745,32.106 C279.19,34.884 279.558,35.115 282.242,33.669 C286.072,31.607 286.667,32.393 286.667,39.518 C286.667,43.961 286.386,46.116 285.688,47.039 C284.178,49.035 284.435,49.333 287.667,49.333 C290.786,49.333 291.371,48.748 289.667,47.333 C288.391,46.274 288.224,34.709 289.467,33.467 C290.643,32.291 292.259,32.487 294.243,34.048 L296,35.43 L296,32.715 C296,30.143 295.237,29.205 294.333,30.667 C294.107,31.033 291.257,31.333 288,31.333 C284.743,31.333 281.893,31.033 281.667,30.667 C280.905,29.434 280.17,29.985 279.745,32.106 M306.086,33.5 C305.426,35.058 304.019,38.561 302.958,41.285 C301.565,44.862 300.518,46.527 299.186,47.285 C296.514,48.804 296.896,49.333 300.667,49.333 C304.307,49.333 304.387,49.269 303.168,47.316 C301.212,44.184 306.772,40.264 309.71,42.703 C310.959,43.739 310.935,46.281 309.667,47.333 C307.89,48.808 308.59,49.333 312.333,49.333 C316.432,49.333 316.696,49.073 314.417,47.28 C313.487,46.548 312.507,44.721000000000004 312.042,42.851 C308.97,30.499 308.001,28.978 306.086,33.5 M221.59,32.977 C223.074,35.241 223.132,46.117 221.667,47.333 C220.006,48.711 220.525,49.333 223.333,49.333 C226.142,49.333 226.66,48.711 225,47.333 C223.868,46.394 223.554,38.354 224.624,37.693 C225.174,37.353 229.129,44.742 230.32,48.333 C230.669,49.386 231.479,48.274 234.177,43.04 C237.47,36.65 237.612,36.483 238.152,38.373 C238.801,40.645 238.199,47.132 237.287,47.696 C235.877,48.567 236.835,49.333 239.333,49.333 C242.231,49.333 242.466,49.006 240.979,47.039 C239.742,45.404 239.59,34.01 240.789,32.811 C241.905,31.695 240.943,31.006 239.296,31.741 C238.45,32.119 237.014,34.425 235.599,37.679 C232.002,45.95 231.918,45.961 228.345,38.611 C225.384,32.519 224.528,31.626 221.423,31.4 C220.705,31.347 220.74,31.68 221.59,32.977 M245.333,32 C245.333,32.367 245.778,32.667 246.321,32.667 C248.52,32.667 248.624,46.074 246.438,47.673 C244.436,49.137 245.265,49.385 251.5,49.192 L257.667,49 L257.855,47 L258.044,45 L256.816,46.548 C255.833,47.787 255.065,48.053 252.961,47.881 L250.333,47.667 L250.333,44.333 C250.333,40.542 252.725,39.306 255.392,41.72 C256.626,42.837 256.667,42.792 256.667,40.309 C256.667,38.048 256.565,37.884 255.804,38.925 C253.932,41.485 250.365,40.108 250.123,36.733 C249.823,32.529 253.118,31.06 255.974,34.126 L257.333,35.585 L257.333,33.459 L257.333,31.333 L251.333,31.333 C247.778,31.333 245.333,31.605 245.333,32 M308.593,37.41 C309.471,39.927 309.1,40.667 306.961,40.667 C305.186,40.667 304.945,39.774 305.983,37.043 C306.85,34.765 307.714,34.886 308.593,37.41 M117.532,40.328 C117.481,42.105 117.68900000000001,42.449 118.66,42.195 C119.314,42.024 120.051,42.21 120.297,42.609 C120.907,43.595 122,43.525 122,42.5 C122,42.042 121.008,40.876 119.797,39.909 L117.593,38.151 L117.532,40.328 M82.667,45.965 C81.75,46.278 79.743,46.564 78.206,46.6 C73.125,46.721000000000004 74.096,49.896 79.434,50.619 C81.916,50.955 82.316,51.252 82.8,53.124 C83.115,54.342 83.915,55.428 84.675,55.669 C85.681,55.988 86.001,56.682 86.002,58.545 C86.008,64.127 90.773,67.734 91.207,62.485 C91.38,60.404 91.911,59.616 94.351,57.824 C96.014,56.601 97.151,55.28 96.975,54.775 C96.804,54.285 96.475,52.702 96.244,51.258 C95.511,46.677 88.544,43.961 82.667,45.965 M127.667,58.09 C123.187,60.237 123.027,60.381 122.132,63.065 C121.654,64.496 120.402,66.567 119.349,67.667 C115.089,72.117 114.22,81.364 117.591,86.37 L119.848,89.722 L123.747,89.814 C125.894,89.864 128.073,89.552 128.597,89.119 C129.337,88.51 129.616,88.53 129.845,89.21 C130.007,89.69200000000001 130.87,90.364 131.763,90.703 C133.197,91.249 133.294,91.494 132.595,92.8 C132.16,93.614 131.855,95.864 131.918,97.8 C132.039,101.497 130.721,104.945 127.591,109.122 C124.96,112.632 125.822,112.56 129.046,109 C144.989,91.393 153.82,76.84 152.717,69.991 C151.867,64.715 150.434,62.697 147.523,62.677 C146.711,62.671 145.125,61.767 144,60.667 C141.586,58.307 139.965,58.159 137.388,60.065 C135.037,61.803 133,61.526 133,59.467 C133,56.668 131.463,56.271 127.667,58.09 M291.733,70.4 C290.567,73.439 291.443,74.631 293.627,72.979 C295.716,71.399 297.908,71.734 298.404,73.71 C299.212,76.929 298.313,86.122 297.105,87.006 C295.32,88.311 295.797,88.667 299.333,88.667 C302.527,88.667 303.783,87.72 301.667,86.908 C299.707,86.156 300.26,72.794 302.271,72.289 C303.962,71.865 306.667,72.932 306.667,74.023 C306.667,74.377 306.967,74.667 307.333,74.667 C308.175,74.667 308.216,70.212 307.379,69.695 C307.038,69.484 306.57,69.616 306.34,69.989 C305.803,70.858 294.972,70.877 293.356,70.012 C292.437,69.52 292.034,69.617 291.733,70.4 M280.8,70.841 C280.424,71.295 279.166,74.067 278.005,77 C274.68,85.396 273.964,86.65 272.254,87.079 C269.424,87.79 270.573,88.667 274.333,88.667 C278.218,88.667 278.711,88.334 276.846,86.97 C274.596,85.325 277.306,81.333 280.672,81.333 C284.013,81.333 285.436,83.726 283.684,86.4 C282.239,88.606 282.301,88.667 286,88.667 C289.47,88.667 290.269,87.881 288.023,86.679 C287.289,86.286 286.394,84.734 285.989,83.155 C283.044,71.655 282.06,69.319 280.8,70.841 M226.013,71.797 C219.255,75.302 218.952,84.049 225.473,87.397 C229.933,89.686 235.333,88.467 235.333,85.171 C235.333,83.81 235.255,83.825 233.464,85.542 C228.112,90.669 220.638,82.479 224.266,75.464 C226.595,70.961 234.667,70.771 234.667,75.219 C234.667,76.496 235.817,76.106 236.183,74.705 C237.023,71.494 230.302,69.573 226.013,71.797 M238.667,71.262 C238.667,71.589 239.117,72.03 239.667,72.241 C240.468,72.549 240.667,74.022 240.667,79.667 C240.667,85.311 240.468,86.785 239.667,87.092 C237.612,87.881 238.777,88.667 242,88.667 C245.746,88.667 245.873,88.54 244,86.667 C242.604,85.271 242.135,78.827 243.083,74.083 C243.783,70.585 248.667,72.032 248.667,75.737 C248.667,77.446 246.846,80 245.629,80 C244.255,80 244.363,80.293 247.358,84.703 C249.628,88.046 250.359,88.667 252.025,88.667 C254.349,88.667 254.653,87.652 252.5,87.079 C251.675,86.859 250.14,85.455 249.088,83.958 L247.177,81.236 L248.922,79.415 C251.21,77.027 251.34,73.214 249.185,71.704 C247.568,70.572 238.667,70.198 238.667,71.262 M255.333,71.231 C255.333,71.568 255.933,72.001 256.667,72.193 C257.889,72.513 258,73.103 258,79.265 C258,85.267 257.857,86.078 256.667,86.821 C254.282,88.311 255.23,88.667 261.589,88.667 C268.079,88.667 268.599,88.409 268.658,85.167 C268.677,84.081 267.398,84.747 266.989,86.034 C266.62,87.198 266.092,87.372 263.444,87.201 L260.333,87 L260.333,83.667 C260.333,79.979 263.109,78.537 265.535,80.964 C267.055,82.484 267.333,82.267 267.333,79.563 C267.333,77.245 267.274,77.18 266.114,78.23 C263.63,80.478 260,79.247 260,76.156 C260,72.04 263.454,70.632 266.515,73.5 L268.116,75 L267.892,73 L267.667,71 L261.5,70.808 C258.048,70.701 255.333,70.887 255.333,71.231 M311.333,71.294 C311.333,71.639 311.633,72.107 312,72.333 C313.206,73.078 312.831,86.047 311.563,87.448 C310.509,88.612 310.599,88.667 313.563,88.667 C317.093,88.667 316.994,88.781 315.671,86.243 C314.088,83.208 314.302,74.364 316,72.667 C317.854,70.813 317.732,70.667 314.333,70.667 C312.683,70.667 311.333,70.949 311.333,71.294 M320.359,71.292 C320.146,71.636 320.426,72.172 320.98,72.482 C321.535,72.793 323.295,76.578 324.892,80.895 C328.495,90.635 328.258,90.629 332.058,81.061 C333.793,76.694 335.689,72.854 336.272,72.527 C338.129,71.489 337.42,70.667 334.667,70.667 C331.731,70.667 331.636,70.768 332.808,72.645 C333.686,74.051 330.387,83.469 329,83.515 C327.687,83.559 324.352,73.323 325.224,71.927 C325.946,70.771 325.793,70.667 323.378,70.667 C321.93,70.667 320.571,70.948 320.359,71.292 M340,71.333 C340,71.7 340.444,72 340.987,72 C343.186,72 343.291,85.407 341.105,87.006 C339.102,88.47 339.931,88.719 346.167,88.525 L352.333,88.333 L352.522,86.333 L352.71,84.333 L351.483,85.881 C350.5,87.121 349.732,87.386 347.628,87.215 L345,87 L345,83.667 C345,79.875 347.392,78.64 350.059,81.053 C351.293,82.17 351.333,82.125 351.333,79.643 C351.333,77.381 351.231,77.218 350.471,78.258 C348.599,80.818 345.032,79.441 344.79,76.066 C344.489,71.862 347.785,70.394 350.641,73.459 L352,74.918 L352,72.792 L352,70.667 L346,70.667 C342.444,70.667 340,70.938 340,71.333 M282.017,76.377 C283.112,79.257 282.835,80 280.667,80 C278.441,80 278.351,79.771 279.399,76.766 C280.286,74.221 281.148,74.092 282.017,76.377 M46.573,78.273 C46.146,79.209 45.243,80.15 44.565,80.365 C43.888,80.581 43.333,81.026 43.333,81.355 C43.333,82.091 49.431,88 50.19,88 C50.491,88 51.841,88.75 53.19,89.667 C54.747,90.724 56.572,91.333 58.185,91.333 C61.915,91.333 64.175,93.733 63.304,96.769 C61.069,104.561 65.197,111.511 73.959,114.705 C78.672,116.424 78.562,116.302 80.892,122.39 C82.945,127.759 90.739,135.482 91.213,132.619 C91.33,131.912 91.705,131.333 92.046,131.333 C92.388,131.333 92.667,130.766 92.667,130.072 C92.667,129.283 93.29,128.655 94.333,128.393 C95.899,128 96.754,126 95.357,126 C95.003,126 94.419,125.45 94.06,124.778 C93.474,123.684 93.688,123.563 96.114,123.612 L98.822,123.667 L100.578,119.164 C101.658,116.394 102.975,114.24 104,113.566 C106.864,111.685 107.333,110.605 107.333,105.893 C107.333,102.596 107.713,100.646 108.737,98.681 C111.345,93.678 107.07,90.359 100.996,92.668 C99.703,93.16 98.912,93.147 98.284,92.626 C97.796,92.221 96.794,92.081 96.056,92.316 C95.035,92.64 93.899,91.936 91.307,89.371 C89.434,87.517 87.846,86 87.779,86 C87.713,86 86.649,86.289 85.416,86.643 C83.735,87.125 82.704,87.042 81.287,86.31 C79.081,85.168 74.863,85.038 72.254,86.03 C70.785,86.589 70.306,86.522 69.844,85.697 C69.053,84.285 68.682,84.367 65.098,86.74 C63.327,87.913 61.437,88.675 60.745,88.494 C60.073,88.318 59.014,88.459 58.393,88.807 C56.605,89.807 55.333,88.226 55.333,85 C55.333,81.552 54.203,80.369 51.786,81.288 C50.159,81.907 50.067,81.819 49.872,79.474 C49.617,76.41 47.734,75.724 46.573,78.273 M314.4,109.733 C313.234,112.772 314.109,113.964 316.294,112.312 C318.383,110.732 320.575,111.068 321.07,113.043 C321.878,116.262 320.98,125.455 319.771,126.339 C317.987,127.644 318.464,128 322,128 C325.193,128 326.449,127.053 324.333,126.241 C322.374,125.489 322.926,112.128 324.938,111.623 C326.629,111.198 329.333,112.265 329.333,113.357 C329.333,113.711 329.633,114 330,114 C330.841,114 330.883,109.546 330.046,109.028 C329.705,108.818 329.237,108.95 329.007,109.322 C328.47,110.191 317.639,110.21 316.023,109.346 C315.104,108.854 314.701,108.95 314.4,109.733 M256.134,110.174 C255.758,110.628 254.499,113.4 253.338,116.333 C250.013,124.73 249.298,125.984 247.587,126.413 C244.757,127.123 245.906,128 249.667,128 C253.551,128 254.044,127.667 252.18,126.303 C249.93,124.658 252.639,120.667 256.006,120.667 C259.347,120.667 260.769,123.06 259.018,125.733 C257.572,127.939 257.635,128 261.333,128 C264.803,128 265.603,127.214 263.356,126.012 C262.623,125.62 261.727,124.068 261.323,122.489 C258.378,110.988 257.393,108.653 256.134,110.174 M220.414,110.474 C220.153,110.735 220.51,111.41 221.207,111.974 C221.904,112.539 223.763,116.525 225.338,120.833 C228.742,130.142 228.668,130.107 230.632,123.312 C232.416,117.139 232.546,117.143 234.333,123.419 C236.078,129.544 236.336,129.407 239.78,120.537 C241.39,116.391 243.297,112.502 244.02,111.893 C245.898,110.311 245.676,110 242.667,110 C239.759,110 239.643,110.113 240.742,111.873 C241.546,113.16 238.392,121.985 236.958,122.46 C236.563,122.591 235.729,120.485 235.069,117.685 C233.498,111.02 233.127,111.026 231.028,117.76 C228.999,124.267 228.875,124.252 226.34,117.173 C224.832,112.961 224.646,111.828 225.328,111.006 C226.221,109.931 221.472,109.417 220.414,110.474 M268,110.381 C268,110.59 268.488,111.25 269.084,111.846 C270.664,113.426 270.065,124.753 268.298,126.706 C267.081,128.05 267.093,128.053 273.373,127.86 L279.667,127.667 L279.855,125.667 L280.044,123.667 L278.816,125.215 C277.833,126.454 277.065,126.72 274.961,126.548 L272.333,126.333 L272.144,119.154 C271.987,113.199 272.129,111.909 272.977,111.583 C274.975,110.816 273.956,110 271,110 C269.35,110 268,110.171 268,110.381 M283.333,110.381 C283.333,110.59 283.821,111.25 284.417,111.846 C285.998,113.426 285.399,124.753 283.631,126.706 C282.415,128.05 282.426,128.053 288.706,127.86 L295,127.667 L295.188,125.667 L295.377,123.667 L294.15,125.215 C293.167,126.454 292.399,126.72 290.294,126.548 L287.667,126.333 L287.477,119.154 C287.32,113.199 287.462,111.909 288.311,111.583 C290.309,110.816 289.289,110 286.333,110 C284.683,110 283.333,110.171 283.333,110.381 M298,110.667 C298,111.033 298.444,111.333 298.987,111.333 C301.186,111.333 301.291,124.741 299.105,126.339 C297.102,127.803 297.931,128.052 304.167,127.858 L310.333,127.667 L310.522,125.667 L310.71,123.667 L309.483,125.215 C308.5,126.454 307.732,126.72 305.628,126.548 L303,126.333 L303,123 C303,119.209 305.392,117.973 308.059,120.387 C309.293,121.503 309.333,121.458 309.333,118.976 C309.333,116.715 309.231,116.551 308.471,117.592 C306.599,120.151 303.032,118.774 302.79,115.399 C302.489,111.195 305.785,109.727 308.641,112.792 L310,114.251 L310,112.126 L310,110 L304,110 C300.444,110 298,110.272 298,110.667 M257.35,115.71 C258.445,118.591 258.168,119.333 256,119.333 C253.774,119.333 253.685,119.104 254.732,116.099 C255.619,113.554 256.481,113.426 257.35,115.71 " stroke="#b6b6b6" fill="#ffffff" fill-rule="evenodd" fill-opacity="1" stroke-opacity="1"/></g></g></svg>