<svg id="svg" xmlns="http://www.w3.org/2000/svg" xmlns:xlink="http://www.w3.org/1999/xlink" width="400" height="400" viewBox="0, 0, 400,400"><g id="svgg"><path id="path0" d="M91.184 40.858 C 65.826 45.637,37.500 71.456,37.500 89.792 C 37.500 91.969,36.948 93.750,36.272 93.750 C 35.597 93.750,34.974 94.980,34.887 96.484 C 34.801 97.988,33.839 105.009,32.750 112.086 C 31.141 122.539,31.150 127.522,32.798 138.648 C 33.913 146.181,34.857 153.750,34.895 155.469 C 34.933 157.188,35.536 158.987,36.234 159.469 C 36.933 159.950,37.781 163.114,38.119 166.500 C 38.457 169.886,41.696 178.984,45.318 186.719 C 48.939 194.453,52.039 201.484,52.208 202.344 C 52.763 205.176,58.095 214.496,60.854 217.458 C 62.344 219.057,64.549 222.287,65.755 224.636 C 66.961 226.985,69.170 230.032,70.664 231.409 C 72.158 232.785,72.978 234.314,72.486 234.805 C 71.994 235.297,74.468 238.820,77.983 242.634 C 81.499 246.448,84.375 250.017,84.375 250.565 C 84.375 251.114,85.605 252.850,87.109 254.423 C 88.613 255.996,93.008 261.079,96.875 265.719 C 100.742 270.358,110.938 281.246,119.531 289.915 C 128.125 298.583,137.354 308.190,140.040 311.264 C 142.726 314.338,146.305 317.292,147.993 317.828 C 149.681 318.363,151.990 320.536,153.125 322.656 C 154.260 324.776,156.306 326.866,157.672 327.301 C 159.038 327.736,164.727 332.301,170.313 337.446 C 175.898 342.591,180.988 346.817,181.623 346.838 C 182.257 346.858,184.015 347.886,185.529 349.123 C 187.043 350.359,191.336 353.874,195.070 356.935 C 203.323 363.701,202.764 363.687,209.421 357.278 C 212.403 354.406,217.993 350.012,221.843 347.513 C 225.692 345.013,231.083 340.684,233.822 337.891 C 236.561 335.098,239.400 332.813,240.131 332.813 C 240.862 332.813,246.370 328.206,252.371 322.576 C 258.371 316.946,264.213 311.497,265.352 310.467 C 266.490 309.437,273.170 302.624,280.195 295.328 C 287.221 288.032,293.512 282.236,294.175 282.449 C 294.838 282.661,296.001 281.205,296.759 279.212 C 297.517 277.219,300.746 273.297,303.936 270.496 C 307.125 267.696,312.176 261.763,315.160 257.312 C 318.144 252.861,322.851 246.758,325.619 243.750 C 328.388 240.742,330.697 237.690,330.751 236.968 C 330.804 236.245,333.224 232.434,336.127 228.497 C 339.031 224.561,342.081 220.230,342.906 218.873 C 343.731 217.516,345.528 214.648,346.899 212.500 C 348.270 210.352,350.364 206.133,351.553 203.125 C 352.742 200.117,355.224 195.195,357.069 192.188 C 361.089 185.635,365.715 172.486,364.446 171.217 C 363.949 170.720,364.211 170.313,365.030 170.313 C 365.848 170.313,366.606 169.082,366.714 167.578 C 366.821 166.074,368.002 159.219,369.338 152.344 C 373.491 130.967,371.959 98.503,366.270 87.307 C 365.124 85.053,364.628 82.768,365.166 82.229 C 365.705 81.691,365.326 81.250,364.323 81.250 C 363.320 81.250,362.500 80.186,362.500 78.885 C 362.500 66.562,333.332 44.488,311.786 40.505 C 295.271 37.452,251.417 50.369,240.193 61.592 C 238.962 62.823,235.392 64.901,232.259 66.210 C 229.126 67.519,226.563 69.330,226.563 70.233 C 226.563 71.136,225.684 71.881,224.609 71.888 C 223.535 71.895,218.452 75.762,213.313 80.481 C 202.135 90.748,202.455 90.712,193.687 82.674 C 189.855 79.160,180.942 72.452,173.881 67.766 C 166.820 63.081,160.660 58.627,160.191 57.869 C 159.722 57.111,157.238 56.029,154.670 55.465 C 152.101 54.901,150.000 53.675,150.000 52.740 C 150.000 51.806,149.537 51.504,148.972 52.070 C 148.406 52.635,147.176 52.495,146.238 51.758 C 137.853 45.173,103.929 38.457,91.184 40.858 M130.469 55.088 C 136.484 57.090,143.867 60.073,146.875 61.716 C 149.883 63.360,152.871 64.560,153.516 64.384 C 154.160 64.207,154.688 64.807,154.688 65.717 C 154.688 66.627,155.308 66.988,156.066 66.520 C 157.239 65.795,164.719 70.491,167.188 73.501 C 167.617 74.025,170.254 75.783,173.047 77.408 C 175.840 79.032,178.125 80.954,178.125 81.679 C 178.125 82.404,178.758 82.606,179.532 82.127 C 180.732 81.386,189.379 88.168,198.459 96.973 C 201.411 99.836,204.227 99.209,208.735 94.684 C 214.108 89.291,223.126 82.031,224.453 82.031 C 225.134 82.031,227.670 80.098,230.087 77.734 C 232.505 75.371,235.404 73.438,236.530 73.438 C 237.657 73.438,239.851 72.031,241.406 70.313 C 242.962 68.594,245.532 67.188,247.117 67.188 C 248.703 67.188,250.000 66.443,250.000 65.533 C 250.000 64.623,250.703 64.313,251.563 64.844 C 252.422 65.375,253.125 65.023,253.125 64.063 C 253.125 63.102,253.828 62.750,254.688 63.281 C 255.547 63.812,256.250 63.584,256.250 62.774 C 256.250 61.965,257.480 60.906,258.984 60.423 C 260.488 59.939,266.992 57.729,273.438 55.511 C 288.265 50.408,300.758 49.033,310.349 51.448 C 320.499 54.004,334.375 60.984,334.375 63.535 C 334.375 64.684,335.763 65.625,337.460 65.625 C 339.307 65.625,341.517 67.506,342.969 70.313 C 344.302 72.891,346.060 75.000,346.875 75.000 C 348.808 75.000,353.296 83.684,352.021 84.958 C 351.482 85.497,351.979 85.938,353.125 85.938 C 354.271 85.938,354.746 86.400,354.180 86.966 C 353.615 87.531,353.823 88.802,354.642 89.790 C 360.089 96.352,363.126 137.395,359.386 153.906 C 356.006 168.827,354.070 175.000,352.770 175.000 C 352.004 175.000,351.852 175.767,352.432 176.706 C 353.488 178.413,343.130 200.522,339.453 204.408 C 338.379 205.544,337.500 207.478,337.500 208.705 C 337.500 209.933,336.755 210.938,335.845 210.938 C 334.935 210.938,334.546 211.513,334.980 212.215 C 335.415 212.918,334.577 215.291,333.119 217.488 C 326.467 227.515,324.156 230.555,322.303 231.718 C 321.208 232.405,320.313 233.988,320.313 235.234 C 320.313 236.480,319.609 237.500,318.750 237.500 C 317.891 237.500,317.188 238.253,317.188 239.174 C 317.188 240.095,316.309 241.728,315.234 242.804 C 314.160 243.879,310.477 248.223,307.049 252.458 C 303.621 256.692,296.941 264.162,292.205 269.059 C 287.469 273.955,279.375 282.626,274.219 288.327 C 269.063 294.028,262.910 299.708,260.547 300.949 C 258.184 302.190,256.250 303.892,256.250 304.732 C 256.250 306.388,245.570 316.490,239.716 320.371 C 237.722 321.693,232.717 325.918,228.593 329.761 C 224.468 333.604,217.420 339.203,212.931 342.202 C 208.441 345.202,204.750 348.535,204.728 349.609 C 204.649 353.441,196.700 348.248,186.441 337.662 C 184.445 335.603,182.813 334.427,182.813 335.049 C 182.813 335.671,179.133 332.961,174.636 329.027 C 170.139 325.094,165.921 321.875,165.261 321.875 C 164.602 321.875,164.063 320.820,164.063 319.531 C 164.063 318.242,163.090 317.188,161.901 317.188 C 160.712 317.188,157.196 314.373,154.088 310.933 C 150.980 307.493,148.438 305.097,148.438 305.608 C 148.438 306.119,141.230 299.131,132.422 290.079 C 105.534 262.449,98.438 254.750,98.438 253.214 C 98.437 252.403,97.082 250.791,95.426 249.631 C 93.770 248.471,91.548 245.618,90.488 243.292 C 89.428 240.966,87.791 239.063,86.849 239.063 C 85.908 239.063,84.216 236.980,83.089 234.434 C 81.962 231.888,77.603 225.091,73.402 219.328 C 66.518 209.885,65.163 206.250,68.527 206.250 C 69.163 206.250,72.461 208.888,75.857 212.113 C 83.584 219.451,100.468 227.962,108.203 228.418 C 111.426 228.608,114.063 229.365,114.063 230.099 C 114.062 230.834,114.766 231.000,115.625 230.469 C 117.474 229.326,117.483 229.396,117.998 248.438 C 118.218 256.602,118.595 264.546,118.835 266.092 C 119.373 269.565,131.122 281.702,134.512 282.287 C 145.487 284.183,157.249 291.962,159.214 298.624 C 162.432 309.539,174.961 328.125,179.100 328.125 C 179.869 328.125,181.316 329.435,182.316 331.036 C 185.051 335.415,191.176 336.651,190.120 332.611 C 189.632 330.748,190.198 329.154,191.528 328.643 C 192.750 328.174,193.750 326.572,193.750 325.084 C 193.750 323.595,195.494 321.582,197.625 320.611 C 201.681 318.763,201.634 315.024,197.535 313.451 C 192.329 311.453,195.508 309.213,202.138 310.207 C 208.801 311.206,212.567 307.449,211.194 301.172 C 211.053 300.527,211.632 300.000,212.482 300.000 C 213.331 300.000,214.479 297.165,215.033 293.700 C 216.092 287.076,222.252 280.461,226.016 281.905 C 229.297 283.164,230.221 279.835,230.507 265.721 C 230.677 257.329,231.740 250.089,233.358 246.294 C 239.386 232.156,230.252 223.973,214.844 229.708 C 208.729 231.983,195.313 229.631,195.313 226.282 C 195.312 224.341,193.639 222.692,190.592 221.629 C 187.996 220.724,185.113 218.566,184.185 216.832 C 182.757 214.165,181.464 213.823,175.760 214.604 C 171.440 215.197,166.409 214.638,161.740 213.047 C 154.857 210.702,151.849 210.746,139.453 213.376 C 135.365 214.243,134.375 213.958,134.375 211.914 C 134.375 210.518,133.989 209.375,133.516 209.375 C 131.857 209.375,122.626 214.466,119.823 216.927 C 118.090 218.448,113.471 219.576,107.936 219.830 L 98.884 220.246 99.488 212.587 C 100.212 203.400,96.304 199.106,89.552 201.673 C 83.503 203.973,83.011 203.556,82.507 195.703 C 81.936 186.791,78.563 185.692,75.000 193.256 C 73.711 195.993,71.334 198.587,69.719 199.023 C 67.859 199.523,67.118 200.689,67.698 202.200 C 69.651 207.292,65.509 206.112,63.006 200.865 C 61.550 197.811,59.786 195.313,59.086 195.313 C 58.385 195.313,57.813 194.234,57.813 192.917 C 57.813 191.599,55.997 186.939,53.778 182.560 C 51.559 178.181,49.499 172.755,49.198 170.503 C 48.898 168.250,48.497 166.055,48.307 165.625 C 48.117 165.195,47.798 164.141,47.598 163.281 C 47.399 162.422,47.096 161.367,46.925 160.938 C 46.509 159.890,45.947 156.389,43.605 140.249 C 42.000 129.194,42.003 124.282,43.619 114.468 C 44.717 107.800,45.665 101.465,45.724 100.391 C 45.784 99.316,46.494 98.438,47.303 98.438 C 48.111 98.438,48.376 97.405,47.892 96.144 C 47.408 94.882,47.653 93.453,48.438 92.969 C 49.222 92.484,49.538 91.231,49.140 90.184 C 48.174 87.643,62.692 66.861,66.939 64.705 C 68.783 63.769,71.628 61.794,73.263 60.315 C 84.450 50.190,109.009 47.946,130.469 55.088 M282.813 56.179 C 278.327 57.107,258.131 64.942,256.606 66.345 C 256.371 66.561,258.305 70.777,260.902 75.715 C 263.500 80.652,265.625 85.634,265.625 86.785 C 265.625 87.936,266.423 89.371,267.397 89.973 C 268.625 90.732,268.948 89.560,268.449 86.159 C 267.606 80.416,268.513 80.104,273.494 84.424 C 276.814 87.303,276.982 88.077,275.296 92.738 C 274.274 95.565,273.438 99.712,273.438 101.952 C 273.438 104.193,272.309 107.156,270.929 108.535 C 269.273 110.191,268.635 112.883,269.052 116.454 C 269.546 120.680,269.053 122.064,266.799 122.780 C 262.377 124.183,263.425 141.224,267.969 141.808 C 271.218 142.226,282.439 133.481,280.781 131.823 C 278.779 129.821,284.864 126.123,291.366 125.391 C 297.090 124.745,298.506 125.151,300.245 127.937 C 301.383 129.759,303.551 131.250,305.063 131.250 C 306.575 131.250,307.813 132.210,307.813 133.383 C 307.813 134.556,309.270 137.369,311.051 139.633 L 314.289 143.750 311.064 143.750 C 309.290 143.750,306.961 145.156,305.887 146.875 C 302.580 152.171,295.313 151.097,295.313 145.313 C 295.313 142.188,294.531 140.625,292.969 140.625 C 291.680 140.625,290.625 139.922,290.625 139.063 C 290.625 136.682,286.387 137.199,285.429 139.696 C 284.965 140.904,282.399 142.373,279.725 142.961 C 273.222 144.389,268.257 149.644,265.863 157.633 C 264.564 161.971,262.582 164.804,260.035 165.965 C 257.907 166.934,255.783 169.531,255.301 171.752 C 254.820 173.968,254.026 176.836,253.536 178.125 C 253.046 179.414,252.556 181.172,252.445 182.031 C 252.335 182.891,251.305 187.510,250.156 192.297 C 248.329 199.906,248.376 201.599,250.533 205.770 C 251.890 208.394,252.560 210.982,252.021 211.521 C 251.482 212.059,251.899 212.500,252.946 212.500 C 253.993 212.500,255.575 214.581,256.462 217.124 C 257.348 219.667,259.245 222.083,260.677 222.493 C 265.455 223.862,278.862 224.094,282.427 222.870 C 284.838 222.042,286.719 222.433,288.398 224.112 C 289.745 225.460,291.934 226.563,293.260 226.563 C 295.419 226.563,295.413 226.958,293.204 230.330 C 291.572 232.819,290.771 237.456,290.839 244.002 C 290.958 255.273,288.715 261.266,280.171 272.505 C 276.967 276.718,275.120 279.882,276.065 279.536 C 278.428 278.670,292.188 265.817,292.188 264.476 C 292.188 263.879,293.574 261.960,295.268 260.211 C 296.963 258.462,301.006 253.936,304.253 250.153 C 307.500 246.370,311.328 242.035,312.760 240.518 C 314.193 239.001,315.079 237.475,314.730 237.126 C 314.382 236.778,317.253 232.794,321.111 228.275 C 324.969 223.755,328.125 218.708,328.125 217.060 C 328.125 215.411,328.755 214.063,329.524 214.063 C 330.294 214.063,332.287 211.426,333.954 208.203 C 335.621 204.980,339.218 198.214,341.948 193.167 C 347.057 183.719,347.206 182.037,344.468 164.716 C 343.668 159.656,337.793 153.288,334.834 154.274 C 333.880 154.592,332.641 154.112,332.082 153.207 C 331.523 152.303,329.717 151.563,328.069 151.563 C 326.421 151.563,323.920 149.805,322.513 147.656 C 321.105 145.508,318.803 143.738,317.398 143.724 C 315.764 143.707,316.550 142.603,319.584 140.659 C 324.543 137.481,342.004 132.459,348.047 132.474 C 349.980 132.478,351.563 132.003,351.563 131.417 C 351.563 130.832,353.048 130.241,354.864 130.104 C 356.680 129.967,358.563 129.458,359.048 128.973 C 360.482 127.539,356.645 106.228,353.128 96.094 C 351.338 90.938,349.699 86.016,349.485 85.156 C 348.817 82.470,343.140 74.279,341.029 72.956 C 339.921 72.261,337.795 70.479,336.304 68.996 C 323.789 56.543,303.983 51.798,282.813 56.179 M109.375 60.502 C 108.086 60.987,104.922 62.865,102.344 64.676 C 96.916 68.489,83.852 68.450,80.012 64.610 C 78.775 63.373,77.317 62.585,76.772 62.859 C 58.418 72.093,48.747 91.778,47.395 122.656 C 46.609 140.619,46.951 143.740,52.287 167.326 C 56.015 183.807,60.031 188.056,61.653 177.237 C 62.738 170.003,64.997 167.797,72.327 166.815 C 74.592 166.512,76.940 165.769,77.545 165.163 C 81.041 161.667,87.456 165.282,92.923 173.828 C 96.457 179.352,97.917 179.254,98.771 173.438 C 99.149 170.859,98.899 168.750,98.216 168.750 C 97.532 168.750,97.351 167.766,97.812 166.564 C 98.273 165.362,97.854 163.886,96.880 163.284 C 95.639 162.517,95.914 161.301,97.797 159.220 C 99.275 157.586,100.045 156.250,99.508 156.250 C 98.971 156.250,100.268 153.691,102.391 150.563 C 104.513 147.435,106.251 143.393,106.251 141.579 C 106.252 139.765,109.065 135.553,112.501 132.220 C 116.291 128.543,118.750 124.716,118.750 122.494 C 118.750 118.709,126.769 113.040,129.625 114.805 C 133.802 117.387,132.710 111.419,128.337 107.769 C 123.001 103.314,123.601 101.367,130.859 99.591 C 134.056 98.808,135.117 99.923,134.569 103.488 C 134.340 104.980,141.167 106.677,144.669 105.998 C 148.693 105.218,149.070 102.092,145.260 101.096 C 143.443 100.621,141.573 98.770,141.106 96.982 C 140.602 95.054,137.473 92.502,133.409 90.704 C 129.644 89.039,126.563 86.933,126.563 86.025 C 126.563 85.118,126.035 84.489,125.391 84.627 C 124.746 84.766,122.137 84.024,119.592 82.978 C 110.535 79.256,104.115 86.720,108.203 96.220 C 108.418 96.720,106.838 98.068,104.692 99.216 C 100.701 101.352,95.955 99.627,97.766 96.698 C 98.237 95.936,97.877 95.313,96.967 95.313 C 96.057 95.313,95.313 94.258,95.313 92.969 C 95.313 90.740,94.492 90.350,89.063 89.996 C 84.108 89.674,85.440 83.170,90.698 82.015 C 93.415 81.418,98.748 79.555,102.549 77.873 C 106.350 76.192,110.820 75.248,112.483 75.776 C 119.784 78.093,124.290 71.420,118.787 66.440 C 117.088 64.902,116.030 63.109,116.434 62.455 C 117.009 61.525,113.139 58.955,111.982 59.498 C 111.837 59.566,110.664 60.018,109.375 60.502 M254.688 96.850 C 254.688 102.460,255.079 103.211,257.592 102.414 C 259.269 101.882,261.331 102.498,262.471 103.871 C 265.371 107.365,267.188 106.777,267.188 102.344 C 267.188 99.654,266.329 98.438,264.433 98.438 C 262.918 98.438,260.984 96.901,260.136 95.023 C 257.365 88.888,254.688 89.786,254.688 96.850 M166.406 110.938 C 164.688 111.676,160.779 112.330,157.721 112.390 C 144.029 112.661,144.806 123.623,158.594 124.713 C 165.719 125.276,167.246 126.329,167.592 130.914 C 167.727 132.705,169.449 134.904,171.419 135.801 C 174.206 137.071,175.017 138.740,175.075 143.326 C 175.196 152.855,179.576 160.156,185.171 160.156 C 189.514 160.156,189.844 159.750,189.844 154.403 C 189.844 149.303,194.356 142.188,197.591 142.188 C 204.760 142.188,205.427 124.808,198.569 116.668 C 193.266 110.372,175.209 107.155,166.406 110.938 " stroke="none" fill="#000000" fill-rule="evenodd"></path></g></svg>