<svg id="svg" xmlns="http://www.w3.org/2000/svg" xmlns:xlink="http://www.w3.org/1999/xlink" width="400" height="69.82658959537572" viewBox="0, 0, 400,69.82658959537572"><g id="svgg"><path id="path0" d="M0.000 34.913 L 0.000 69.827 200.000 69.827 L 400.000 69.827 400.000 34.913 L 400.000 0.000 200.000 0.000 L 0.000 0.000 0.000 34.913 M53.676 11.365 C 60.252 14.670,61.560 25.475,56.583 35.367 C 52.806 42.871,42.468 54.620,35.725 59.071 C 34.021 60.196,24.143 51.231,17.754 42.762 C 1.765 21.565,13.299 0.312,32.356 15.856 L 34.886 17.920 37.417 15.857 C 43.383 10.998,49.554 9.293,53.676 11.365 M187.050 12.475 C 187.699 15.433,187.264 15.723,182.165 15.723 L 177.572 15.723 177.572 13.410 L 177.572 11.098 182.160 11.098 L 186.747 11.098 187.050 12.475 M17.572 12.515 C 9.406 15.931,9.657 28.686,18.133 41.055 C 21.467 45.920,33.381 57.803,34.925 57.803 C 36.336 57.803,46.980 47.252,51.019 41.850 C 65.905 21.939,55.646 2.820,37.727 17.078 L 34.845 19.372 32.336 17.299 C 27.280 13.122,20.992 11.085,17.572 12.515 M51.098 12.994 C 54.521 13.924,56.900 17.161,57.582 21.819 L 57.899 23.985 55.886 24.500 C 54.779 24.783,53.303 25.237,52.606 25.509 C 51.475 25.951,51.195 25.850,49.993 24.563 C 48.321 22.774,47.858 22.767,46.329 24.509 C 45.660 25.272,44.846 25.896,44.521 25.896 C 43.854 25.896,43.707 23.553,44.330 22.867 C 45.602 21.469,45.905 16.835,44.698 17.241 C 43.970 17.486,42.843 14.776,43.428 14.190 C 43.834 13.785,47.670 12.588,48.786 12.519 C 49.040 12.504,50.081 12.717,51.098 12.994 M22.643 14.305 C 23.328 15.585,23.260 15.723,21.942 15.723 C 20.853 15.723,18.035 16.881,18.035 17.329 C 18.035 17.437,18.520 18.049,19.114 18.689 C 20.268 19.934,21.272 19.599,21.272 17.969 C 21.272 16.235,24.503 17.172,26.210 19.403 C 26.901 20.305,26.118 20.644,25.167 19.855 C 24.608 19.391,24.359 19.394,23.911 19.869 C 23.474 20.333,23.479 20.509,23.931 20.674 C 24.799 20.993,24.627 21.634,23.584 21.965 C 23.075 22.127,22.659 22.525,22.659 22.850 C 22.659 23.175,22.243 23.817,21.734 24.277 C 21.225 24.738,20.809 25.452,20.809 25.865 C 20.809 26.277,20.477 27.089,20.072 27.668 C 19.618 28.316,19.443 29.155,19.618 29.852 C 19.959 31.208,19.400 31.311,18.300 30.095 C 17.296 28.986,14.939 29.618,14.347 31.156 C 13.497 33.362,11.744 25.717,12.240 21.967 C 12.796 17.769,15.667 13.212,17.172 14.142 C 18.213 14.786,19.811 14.750,20.375 14.070 C 21.138 13.150,22.077 13.248,22.643 14.305 M80.749 18.670 C 81.033 18.956,81.838 20.751,82.537 22.659 C 83.237 24.566,83.974 26.543,84.175 27.052 C 84.377 27.561,84.924 28.965,85.392 30.172 C 86.521 33.084,86.356 33.275,89.204 25.773 C 91.813 18.900,92.371 18.074,94.425 18.049 C 97.002 18.019,97.110 18.675,97.110 34.323 L 97.110 48.555 94.335 48.555 L 91.561 48.555 91.561 43.237 C 91.561 40.000,91.380 37.919,91.098 37.919 C 90.844 37.919,90.636 38.323,90.636 38.817 C 90.636 39.310,90.451 39.828,90.226 39.968 C 90.000 40.107,89.682 40.900,89.518 41.729 C 88.686 45.936,84.368 46.179,83.466 42.071 C 83.076 40.294,81.894 37.919,81.400 37.919 C 81.190 37.919,81.120 39.609,81.244 41.674 C 81.622 47.971,81.378 48.555,78.369 48.555 C 75.130 48.555,75.291 49.423,75.465 32.885 L 75.607 19.339 76.695 18.459 C 77.831 17.539,79.723 17.638,80.749 18.670 M119.538 21.503 L 119.538 24.740 114.451 24.971 L 109.364 25.202 109.364 27.514 L 109.364 29.827 113.642 29.960 L 117.919 30.093 117.919 33.295 L 117.919 36.497 113.642 36.630 L 109.364 36.763 109.224 39.191 L 109.085 41.618 113.908 41.618 C 119.643 41.618,119.877 41.781,119.677 45.626 L 119.538 48.324 113.357 48.453 C 103.528 48.659,103.055 47.948,103.141 33.085 C 103.227 18.207,103.303 18.100,113.757 18.207 L 119.538 18.266 119.538 21.503 M141.874 18.431 C 142.292 18.696,142.433 19.718,142.336 21.776 L 142.197 24.740 139.769 24.880 C 138.281 24.965,137.335 25.234,137.325 25.573 C 137.317 25.878,137.317 30.913,137.327 36.763 C 137.346 48.965,137.432 48.658,134.060 48.466 L 131.561 48.324 131.437 36.647 L 131.314 24.971 128.828 24.971 C 126.987 24.971,126.269 24.781,126.061 24.240 C 125.573 22.968,125.757 19.167,126.335 18.590 C 126.980 17.945,140.883 17.803,141.874 18.431 M164.932 18.761 C 165.181 19.409,165.279 21.969,165.138 24.138 C 165.098 24.751,164.554 24.953,162.659 25.063 L 160.231 25.202 160.108 36.879 L 159.984 48.555 156.994 48.555 L 154.004 48.555 153.881 36.879 L 153.757 25.202 151.214 24.971 L 148.671 24.740 148.530 22.017 C 148.312 17.799,147.825 18.035,156.763 18.035 C 163.509 18.035,164.694 18.140,164.932 18.761 M183.960 18.624 C 184.548 19.333,185.133 21.096,187.984 30.751 C 189.185 34.821,190.664 39.705,191.269 41.606 C 191.875 43.506,192.370 45.419,192.370 45.856 C 192.370 46.293,192.578 46.779,192.832 46.936 C 194.285 47.834,193.189 48.555,190.370 48.555 L 187.446 48.555 186.765 46.358 L 186.084 44.162 182.354 44.029 C 178.324 43.885,177.998 44.110,177.478 47.399 C 177.353 48.191,176.918 48.343,174.446 48.461 C 171.073 48.622,171.028 48.525,172.435 44.123 C 172.916 42.618,173.763 39.827,174.319 37.919 C 174.874 36.012,175.500 33.931,175.709 33.295 C 175.919 32.659,176.448 30.890,176.884 29.364 C 177.321 27.838,178.071 25.359,178.550 23.854 C 179.030 22.350,179.422 20.887,179.422 20.605 C 179.422 18.615,182.747 17.163,183.960 18.624 M226.821 21.503 L 226.821 24.740 222.890 24.971 C 216.440 25.351,215.260 26.599,215.260 33.043 C 215.260 40.094,216.232 41.218,222.659 41.601 L 226.821 41.850 226.957 45.202 L 227.093 48.555 221.825 48.555 C 216.216 48.555,214.228 48.018,212.594 46.063 C 207.805 40.333,208.067 24.900,213.031 20.293 C 215.288 18.199,215.912 18.042,221.503 18.157 L 226.821 18.266 226.821 21.503 M249.041 19.422 C 252.512 22.628,252.451 27.764,248.878 33.171 C 247.061 35.920,246.966 35.284,250.255 42.446 C 253.145 48.742,253.173 48.555,249.348 48.555 C 247.189 48.555,246.034 48.362,245.880 47.977 C 245.753 47.659,244.691 45.052,243.519 42.183 C 240.813 35.563,240.822 34.964,243.699 30.432 C 247.098 25.080,246.781 24.289,241.363 24.597 L 238.844 24.740 238.721 36.647 L 238.597 48.555 236.111 48.555 C 234.271 48.555,233.552 48.365,233.344 47.823 C 232.970 46.849,232.982 19.711,233.356 18.734 C 233.901 17.316,247.401 17.907,249.041 19.422 M275.326 18.766 C 275.481 19.168,275.607 20.400,275.607 21.503 C 275.607 24.998,275.649 24.971,270.036 24.971 C 264.400 24.971,264.521 24.906,264.914 27.746 L 265.202 29.827 269.364 30.058 L 273.526 30.289 273.668 33.051 C 273.851 36.612,273.362 36.994,268.631 36.994 L 265.068 36.994 264.860 38.960 C 264.573 41.682,264.450 41.618,270.036 41.618 C 275.583 41.618,275.612 41.635,275.601 44.778 C 275.586 48.677,275.808 48.555,268.715 48.555 C 262.421 48.555,262.386 48.549,260.792 47.219 L 259.191 45.882 259.191 33.395 C 259.191 17.370,258.717 18.113,268.968 18.064 C 274.101 18.039,275.089 18.148,275.326 18.766 M294.296 19.075 C 294.667 19.647,295.379 21.572,295.878 23.353 C 297.230 28.175,298.929 33.885,300.558 39.075 C 302.976 46.784,303.353 48.024,303.353 48.295 C 303.353 48.438,302.022 48.555,300.396 48.555 C 297.327 48.555,296.879 48.260,296.879 46.238 C 296.879 44.531,295.621 43.931,292.046 43.931 C 288.378 43.931,288.418 43.900,287.399 47.514 C 287.137 48.444,286.812 48.555,284.362 48.555 C 281.126 48.555,281.151 48.633,282.723 43.563 C 283.331 41.603,284.188 38.751,284.628 37.225 C 287.648 26.757,290.037 19.201,290.513 18.613 C 291.297 17.643,293.544 17.918,294.296 19.075 M326.012 21.479 L 326.012 24.923 323.584 25.063 L 321.156 25.202 321.033 36.879 L 320.909 48.555 317.919 48.555 L 314.929 48.555 314.806 36.879 L 314.682 25.202 312.139 24.971 L 309.595 24.740 309.455 22.017 C 309.237 17.793,308.724 18.035,317.905 18.035 L 326.012 18.035 326.012 21.479 M337.754 18.766 C 337.908 19.168,338.035 26.036,338.035 34.026 L 338.035 48.555 335.029 48.555 L 332.023 48.555 332.023 34.026 C 332.023 26.036,332.149 19.168,332.304 18.766 C 332.704 17.724,337.354 17.724,337.754 18.766 M350.438 20.694 C 350.963 22.156,351.937 25.225,352.602 27.514 C 353.267 29.803,354.090 32.301,354.431 33.064 C 355.108 34.581,355.053 34.658,356.263 30.520 C 357.787 25.303,358.550 22.828,359.326 20.578 L 360.124 18.266 362.952 18.128 C 366.130 17.974,366.246 18.133,365.142 21.147 C 364.791 22.106,364.249 23.827,363.938 24.971 C 363.627 26.116,363.106 27.884,362.781 28.902 C 362.455 29.919,361.827 32.000,361.386 33.526 C 357.328 47.549,357.009 48.300,355.039 48.466 C 353.148 48.624,352.627 47.960,351.479 43.931 C 351.154 42.786,350.621 41.017,350.295 40.000 C 349.969 38.983,349.346 36.902,348.909 35.376 C 347.832 31.607,347.516 30.546,345.903 25.254 C 343.841 18.491,343.910 18.035,346.996 18.035 L 349.483 18.035 350.438 20.694 M388.353 20.547 C 388.635 25.008,388.680 24.971,382.881 24.971 L 377.803 24.971 377.803 27.514 L 377.803 30.058 382.197 30.058 L 386.590 30.058 386.590 33.277 L 386.590 36.497 382.312 36.630 L 378.035 36.763 377.895 39.175 L 377.756 41.588 382.982 41.719 L 388.208 41.850 388.208 45.087 L 388.208 48.324 381.853 48.452 C 371.902 48.654,371.792 48.486,371.792 33.111 C 371.792 18.065,371.841 17.993,381.965 18.162 L 388.208 18.266 388.353 20.547 M43.838 19.052 C 44.667 19.881,44.510 20.291,43.468 20.018 C 42.960 19.885,42.543 19.489,42.543 19.137 C 42.543 18.350,43.099 18.313,43.838 19.052 M48.421 26.358 C 48.676 27.334,49.691 27.602,50.173 26.821 C 50.611 26.112,52.250 26.272,52.550 27.052 C 52.696 27.434,53.184 27.746,53.634 27.746 C 58.388 27.746,55.415 36.049,47.243 45.596 L 45.699 47.399 46.730 45.619 C 47.298 44.641,47.831 42.912,47.916 41.778 C 48.001 40.644,48.182 39.535,48.319 39.313 C 48.611 38.842,47.563 38.527,45.370 38.428 C 41.581 38.257,40.546 33.436,43.494 29.689 C 43.988 29.060,44.393 28.259,44.393 27.908 C 44.393 26.381,48.058 24.971,48.421 26.358 M181.845 33.105 C 180.519 35.632,180.647 36.994,182.211 36.994 C 183.666 36.994,183.682 36.970,183.362 35.260 C 182.877 32.670,182.416 32.016,181.845 33.105 M291.910 33.391 C 290.747 34.807,291.017 36.754,292.397 36.912 C 293.666 37.057,293.689 37.019,293.382 35.293 C 293.002 33.158,292.564 32.593,291.910 33.391 M17.572 34.187 C 17.572 34.761,17.944 35.133,18.613 35.228 C 19.375 35.336,19.653 35.685,19.653 36.532 C 19.653 37.929,21.516 38.351,23.210 37.336 C 23.873 36.939,25.241 36.751,26.821 36.840 C 28.220 36.918,29.884 37.001,30.520 37.024 C 31.156 37.047,32.231 37.592,32.909 38.236 C 33.824 39.104,34.719 39.434,36.378 39.517 C 37.607 39.579,38.873 39.661,39.191 39.699 C 39.877 39.782,39.971 41.901,39.306 42.312 C 39.052 42.469,38.844 43.633,38.844 44.897 C 38.844 46.577,38.645 47.273,38.105 47.480 C 37.699 47.636,36.978 48.670,36.503 49.778 C 36.028 50.886,35.327 51.792,34.944 51.792 C 34.553 51.792,34.353 52.063,34.486 52.411 C 34.617 52.752,34.403 53.298,34.009 53.624 C 33.616 53.950,33.295 54.504,33.295 54.854 C 33.295 56.578,30.104 53.822,29.110 51.240 C 28.498 49.649,27.897 49.016,26.122 48.092 C 23.279 46.613,22.041 44.491,22.430 41.763 C 22.720 39.738,22.007 38.844,20.104 38.844 C 17.743 38.844,14.897 35.579,16.068 34.212 C 17.059 33.054,17.572 33.045,17.572 34.187 " stroke="none" fill="#000000" fill-rule="evenodd"></path></g></svg>